<svg width="499" height="461" viewBox="0 0 499 461" fill="none" xmlns="http://www.w3.org/2000/svg">
<path d="M185.5 1.08709C94.0338 8.28709 20.7005 74.2871 2.56714 165.754C-1.16619 184.42 -0.766194 227.62 3.36714 246.42C14.1671 297.087 41.6338 339.62 80.5671 366.154C88.4338 371.62 99.9005 381.62 111.9 393.62C133.1 414.954 150.034 427.22 173.367 438.287C206.434 453.887 234.167 460.287 269.5 460.287C314.967 460.287 356.034 447.62 395.501 421.487C414.167 408.954 440.967 382.82 454.434 363.754C482.967 323.487 497.901 276.687 498.567 226.154C498.701 210.02 498.434 207.62 496.301 205.22C493.101 201.754 487.367 201.62 484.434 204.82C482.567 206.82 482.167 210.154 482.167 221.22C482.034 298.287 445.234 368.954 384.167 409.487C361.767 424.154 340.834 433.22 314.701 439.22C292.167 444.287 260.3 445.22 237.5 441.354C153.767 427.087 89.2338 365.087 74.7005 285.087C71.2338 266.287 71.5005 235.22 75.3671 217.22C87.3671 160.82 123.767 120.287 173.634 107.754C219.9 96.1538 271.234 118.02 292.834 158.687C296.567 165.487 296.834 166.687 294.701 165.754C293.367 165.087 287.234 162.954 281.367 160.82C242.167 147.22 198.967 156.82 167.234 186.154C160.834 192.154 159.5 194.154 159.5 197.754C159.5 202.42 162.834 206.42 166.967 206.42C168.434 206.42 171.367 204.554 173.634 202.287C185.5 189.887 206.967 177.754 224.434 173.887C236.434 171.22 253.767 171.087 266.167 173.754C276.967 176.02 292.567 183.22 299.901 189.22L304.834 193.22V205.487C304.834 228.954 297.501 247.22 282.167 262.42C272.301 272.154 263.634 277.354 252.167 280.42C242.034 282.954 224.7 282.954 215.5 280.287C202.967 276.687 200.3 276.554 197.767 279.487C194.434 283.087 195.367 288.82 199.5 291.887C201.367 293.354 207.9 295.754 214.167 297.22C250.7 306.42 292.167 287.487 309.767 253.62C319.234 235.487 321.501 225.887 321.367 205.087C321.367 184.554 319.501 176.02 311.501 158.954C284.301 100.42 220.3 72.8204 159.1 93.2204C105.634 110.954 66.5671 162.02 57.5005 225.487C52.7005 258.954 56.9671 297.354 68.8338 327.22C71.1005 332.687 72.8338 337.487 72.8338 338.02C72.8338 338.42 69.6338 335.354 65.9005 331.087C41.6338 304.554 27.2338 276.687 19.2338 240.42C14.9671 221.087 14.9671 186.42 19.3671 166.42C27.6338 127.887 42.5671 100.287 70.0338 73.0871C92.3005 50.9538 114.7 37.0871 143.1 27.8871C165.1 20.6871 176.3 19.0871 203.5 19.2204C225.634 19.2204 229.634 19.6204 242.167 22.6871C265.9 28.6871 282.701 35.8871 300.434 47.8871C305.767 51.4871 311.501 54.4204 313.234 54.4204C317.501 54.4204 320.834 50.4204 320.834 45.3538C320.834 40.4204 318.834 38.4204 307.501 30.9538C281.634 14.2871 251.367 4.15375 218.167 1.22042C209.767 0.420419 201.634 -0.112915 200.167 0.0204187C198.7 0.0204187 192.167 0.553752 185.5 1.08709Z" fill="black"/>
<path d="M340.834 62.0204C334.034 64.5537 331.767 73.3537 336.834 78.4204C344.034 85.6204 355.767 76.8204 352.034 67.087C351.367 65.3537 344.567 60.8204 343.234 61.2204C342.967 61.2204 341.9 61.6204 340.834 62.0204Z" fill="black"/>
<path d="M359.767 96.1537C355.634 100.554 355.9 106.82 360.3 110.287C362.3 111.887 364.834 113.087 366.167 113.087C367.5 113.087 370.034 111.887 372.034 110.287C376.7 106.687 376.967 98.287 372.567 95.2204C368.3 92.1537 363.1 92.5537 359.767 96.1537Z" fill="black"/>
<path d="M378.434 129.087C372.434 134.687 376.167 146.42 384.034 146.42C389.234 146.42 394.167 141.62 394.167 136.42C394.167 133.22 393.234 131.22 390.7 129.22C386.167 125.62 382.167 125.62 378.434 129.087Z" fill="black"/>
<path d="M391.234 165.887C384.301 169.62 384.834 180.154 392.034 183.62C395.367 185.22 396.434 185.087 400.301 183.22C407.767 179.754 408.167 169.487 400.834 165.754C396.167 163.354 395.767 163.354 391.234 165.887Z" fill="black"/>
<path d="M390.834 207.087C388.967 208.82 387.501 211.887 387.501 213.754C387.501 215.62 388.967 218.687 390.834 220.42C392.567 222.287 395.634 223.754 397.501 223.754C399.367 223.754 402.434 222.287 404.167 220.42C406.034 218.687 407.501 215.62 407.501 213.754C407.501 211.887 406.034 208.82 404.167 207.087C402.434 205.22 399.367 203.754 397.501 203.754C395.634 203.754 392.567 205.22 390.834 207.087Z" fill="black"/>
<path d="M146.567 219.087C142.7 221.754 141.634 226.954 144.034 231.62C148.967 241.087 162.167 237.487 162.167 226.687C162.167 218.687 153.367 214.287 146.567 219.087Z" fill="black"/>
<path d="M384.834 244.687C376.701 255.087 390.167 266.42 399.501 257.087C403.101 253.487 402.834 248.287 398.834 244.42C394.434 239.887 388.567 240.02 384.834 244.687Z" fill="black"/>
<path d="M142.7 254.42C139.1 255.754 135.5 260.82 135.5 264.154C135.5 265.487 137.367 268.42 139.5 270.687C142.834 273.887 144.3 274.554 147.234 273.754C152.7 272.42 155.5 269.22 155.5 264.42C155.5 256.954 148.967 251.887 142.7 254.42Z" fill="black"/>
<path d="M370.434 280.154C364.567 286.42 368.434 296.154 376.834 296.154C380.034 296.154 382.167 295.22 384.434 292.554C388.167 288.154 388.3 285.087 384.7 280.554C381.1 276.02 374.434 275.754 370.434 280.154Z" fill="black"/>
<path d="M147.767 291.754C141.5 297.62 146.034 309.087 154.7 309.087C159.234 309.087 164.834 303.62 164.834 299.354C164.834 297.62 163.634 294.554 162.034 292.554C158.567 288.154 152.034 287.887 147.767 291.754Z" fill="black"/>
<path d="M347.634 312.554C343.9 317.22 344.167 321.754 348.167 325.754C351.767 329.487 354.3 329.887 358.567 327.487C365.5 323.887 366.7 317.487 361.5 312.42C357.1 307.887 351.234 308.02 347.634 312.554Z" fill="black"/>
<path d="M166.834 324.42C160.3 330.82 164.7 341.087 173.767 341.087C178.7 341.087 183.5 336.02 183.5 330.82C183.5 326.554 177.9 321.087 173.5 321.087C171.634 321.087 168.567 322.554 166.834 324.42Z" fill="black"/>
<path d="M317.367 336.154C314.834 338.42 313.767 340.554 313.767 343.62C313.767 352.954 324.967 357.087 331.1 349.887C335.9 344.154 335.1 338.287 328.7 335.087C323.634 332.42 321.634 332.554 317.367 336.154Z" fill="black"/>
<path d="M198.834 347.087C192.567 353.22 196.567 363.754 205.367 363.754C209.9 363.754 215.5 358.287 215.5 353.754C215.5 349.354 209.9 343.754 205.5 343.754C203.634 343.754 200.567 345.22 198.834 347.087Z" fill="black"/>
<path d="M282.167 350.82C277.1 353.354 274.567 358.687 276.567 362.954C278.7 367.62 284.034 370.954 288.167 369.887C298.434 367.354 299.9 355.62 290.567 350.687C286.967 348.687 286.3 348.687 282.167 350.82Z" fill="black"/>
<path d="M238.167 357.087C234.834 360.42 234.701 366.554 237.901 370.287C241.101 374.42 247.901 374.42 252.167 370.42C256.167 366.554 256.434 362.554 252.701 357.887C249.234 353.487 242.167 353.087 238.167 357.087Z" fill="black"/>
</svg>
